<mxfile host="Electron" agent="Mozilla/5.0 (Windows NT 10.0; Win64; x64) AppleWebKit/537.36 (KHTML, like Gecko) draw.io/26.0.7 Chrome/128.0.6613.186 Electron/32.2.5 Safari/537.36" version="26.0.7" pages="2">
  <diagram id="EmVwI_WyvSLOQdjcPP8m" name="Hierarchy Chart">
    <mxGraphModel dx="1434" dy="836" grid="1" gridSize="10" guides="1" tooltips="1" connect="1" arrows="1" fold="1" page="1" pageScale="1" pageWidth="850" pageHeight="1100" math="0" shadow="0">
      <root>
        <mxCell id="0" />
        <mxCell id="1" parent="0" />
        <UserObject label="customerQuote()" treeRoot="1" id="Y5pTVVukb48kayxYoGtE-1">
          <mxCell style="whiteSpace=wrap;html=1;align=center;treeFolding=1;treeMoving=1;newEdgeStyle={&quot;edgeStyle&quot;:&quot;elbowEdgeStyle&quot;,&quot;startArrow&quot;:&quot;none&quot;,&quot;endArrow&quot;:&quot;none&quot;};" vertex="1" parent="1">
            <mxGeometry x="330" y="110" width="120" height="60" as="geometry" />
          </mxCell>
        </UserObject>
        <mxCell id="Y5pTVVukb48kayxYoGtE-2" value="endProgram()" style="whiteSpace=wrap;html=1;align=center;verticalAlign=middle;treeFolding=1;treeMoving=1;newEdgeStyle={&quot;edgeStyle&quot;:&quot;elbowEdgeStyle&quot;,&quot;startArrow&quot;:&quot;none&quot;,&quot;endArrow&quot;:&quot;none&quot;};" vertex="1" parent="1">
          <mxGeometry x="470" y="230" width="100" height="60" as="geometry" />
        </mxCell>
        <mxCell id="Y5pTVVukb48kayxYoGtE-3" value="" style="edgeStyle=elbowEdgeStyle;elbow=vertical;sourcePerimeterSpacing=0;targetPerimeterSpacing=0;startArrow=none;endArrow=none;rounded=0;curved=0;" edge="1" parent="1" target="Y5pTVVukb48kayxYoGtE-2">
          <mxGeometry relative="1" as="geometry">
            <mxPoint x="430" y="170" as="sourcePoint" />
          </mxGeometry>
        </mxCell>
        <mxCell id="Y5pTVVukb48kayxYoGtE-4" value="custName()" style="whiteSpace=wrap;html=1;align=center;verticalAlign=middle;treeFolding=1;treeMoving=1;newEdgeStyle={&quot;edgeStyle&quot;:&quot;elbowEdgeStyle&quot;,&quot;startArrow&quot;:&quot;none&quot;,&quot;endArrow&quot;:&quot;none&quot;};direction=north;" vertex="1" parent="1">
          <mxGeometry x="170" y="230" width="110" height="55" as="geometry" />
        </mxCell>
        <mxCell id="Y5pTVVukb48kayxYoGtE-5" value="" style="edgeStyle=elbowEdgeStyle;elbow=vertical;sourcePerimeterSpacing=0;targetPerimeterSpacing=0;startArrow=none;endArrow=none;rounded=0;curved=0;" edge="1" parent="1">
          <mxGeometry relative="1" as="geometry">
            <mxPoint x="355" y="170" as="sourcePoint" />
            <mxPoint x="230" y="230" as="targetPoint" />
          </mxGeometry>
        </mxCell>
        <mxCell id="Y5pTVVukb48kayxYoGtE-6" value="projectedCost()" style="whiteSpace=wrap;html=1;align=center;verticalAlign=middle;treeFolding=1;treeMoving=1;newEdgeStyle={&quot;edgeStyle&quot;:&quot;elbowEdgeStyle&quot;,&quot;startArrow&quot;:&quot;none&quot;,&quot;endArrow&quot;:&quot;none&quot;};" vertex="1" parent="1">
          <mxGeometry x="340" y="240" width="100" height="60" as="geometry" />
        </mxCell>
        <mxCell id="Y5pTVVukb48kayxYoGtE-7" value="" style="edgeStyle=elbowEdgeStyle;elbow=vertical;sourcePerimeterSpacing=0;targetPerimeterSpacing=0;startArrow=none;endArrow=none;rounded=0;curved=0;" edge="1" parent="1">
          <mxGeometry relative="1" as="geometry">
            <mxPoint x="389.5" y="170" as="sourcePoint" />
            <mxPoint x="389.5" y="240" as="targetPoint" />
          </mxGeometry>
        </mxCell>
      </root>
    </mxGraphModel>
  </diagram>
  <diagram id="MhN7k9B664OVTWIaRi3z" name="Exercize 8 Construction Company">
    <mxGraphModel dx="1434" dy="1936" grid="1" gridSize="10" guides="1" tooltips="1" connect="1" arrows="1" fold="1" page="1" pageScale="1" pageWidth="850" pageHeight="1100" math="0" shadow="0">
      <root>
        <mxCell id="0" />
        <mxCell id="1" parent="0" />
        <mxCell id="Ba5H4StME68v2Yec3neK-1" value="stop" style="strokeWidth=2;html=1;shape=mxgraph.flowchart.terminator;whiteSpace=wrap;" vertex="1" parent="1">
          <mxGeometry x="80" y="360" width="100" height="60" as="geometry" />
        </mxCell>
        <mxCell id="Ba5H4StME68v2Yec3neK-2" value="" style="edgeStyle=orthogonalEdgeStyle;rounded=0;orthogonalLoop=1;jettySize=auto;html=1;" edge="1" parent="1" source="Ba5H4StME68v2Yec3neK-3" target="Ba5H4StME68v2Yec3neK-6">
          <mxGeometry relative="1" as="geometry" />
        </mxCell>
        <mxCell id="Ba5H4StME68v2Yec3neK-3" value="start CustomerQuote()" style="strokeWidth=2;html=1;shape=mxgraph.flowchart.terminator;whiteSpace=wrap;" vertex="1" parent="1">
          <mxGeometry x="80" y="-60" width="100" height="60" as="geometry" />
        </mxCell>
        <mxCell id="Ba5H4StME68v2Yec3neK-4" value="" style="edgeStyle=orthogonalEdgeStyle;rounded=0;orthogonalLoop=1;jettySize=auto;html=1;" edge="1" parent="1" source="Ba5H4StME68v2Yec3neK-6" target="Ba5H4StME68v2Yec3neK-9">
          <mxGeometry relative="1" as="geometry" />
        </mxCell>
        <mxCell id="Ba5H4StME68v2Yec3neK-5" style="edgeStyle=orthogonalEdgeStyle;rounded=0;orthogonalLoop=1;jettySize=auto;html=1;exitX=1;exitY=0.5;exitDx=0;exitDy=0;strokeColor=light-dark(#FF0000,#FFFFFF);" edge="1" parent="1" source="Ba5H4StME68v2Yec3neK-6" target="Ba5H4StME68v2Yec3neK-14">
          <mxGeometry relative="1" as="geometry" />
        </mxCell>
        <mxCell id="Ba5H4StME68v2Yec3neK-6" value="Call custName()" style="shape=process;whiteSpace=wrap;html=1;backgroundOutline=1;strokeWidth=2;" vertex="1" parent="1">
          <mxGeometry x="70" y="50" width="120" height="60" as="geometry" />
        </mxCell>
        <mxCell id="Ba5H4StME68v2Yec3neK-7" value="" style="edgeStyle=orthogonalEdgeStyle;rounded=0;orthogonalLoop=1;jettySize=auto;html=1;" edge="1" parent="1" source="Ba5H4StME68v2Yec3neK-9" target="Ba5H4StME68v2Yec3neK-12">
          <mxGeometry relative="1" as="geometry" />
        </mxCell>
        <mxCell id="Ba5H4StME68v2Yec3neK-8" style="edgeStyle=orthogonalEdgeStyle;rounded=0;orthogonalLoop=1;jettySize=auto;html=1;exitX=1;exitY=0.5;exitDx=0;exitDy=0;strokeColor=light-dark(#00CC00,#FFFFFF);" edge="1" parent="1" source="Ba5H4StME68v2Yec3neK-9" target="Ba5H4StME68v2Yec3neK-22">
          <mxGeometry relative="1" as="geometry">
            <mxPoint x="420" y="370" as="targetPoint" />
            <Array as="points">
              <mxPoint x="241" y="190" />
            </Array>
          </mxGeometry>
        </mxCell>
        <mxCell id="Ba5H4StME68v2Yec3neK-9" value="Call projectedCost()" style="shape=process;whiteSpace=wrap;html=1;backgroundOutline=1;strokeWidth=2;" vertex="1" parent="1">
          <mxGeometry x="70" y="160" width="120" height="60" as="geometry" />
        </mxCell>
        <mxCell id="Ba5H4StME68v2Yec3neK-10" value="" style="edgeStyle=orthogonalEdgeStyle;rounded=0;orthogonalLoop=1;jettySize=auto;html=1;" edge="1" parent="1" source="Ba5H4StME68v2Yec3neK-12" target="Ba5H4StME68v2Yec3neK-1">
          <mxGeometry relative="1" as="geometry" />
        </mxCell>
        <mxCell id="Ba5H4StME68v2Yec3neK-11" style="edgeStyle=orthogonalEdgeStyle;rounded=0;orthogonalLoop=1;jettySize=auto;html=1;exitX=1;exitY=0.75;exitDx=0;exitDy=0;" edge="1" parent="1" source="Ba5H4StME68v2Yec3neK-12" target="Ba5H4StME68v2Yec3neK-41">
          <mxGeometry relative="1" as="geometry">
            <Array as="points">
              <mxPoint x="190" y="270" />
              <mxPoint x="370" y="270" />
            </Array>
          </mxGeometry>
        </mxCell>
        <mxCell id="Ba5H4StME68v2Yec3neK-12" value="Call endProgam()" style="shape=process;whiteSpace=wrap;html=1;backgroundOutline=1;strokeWidth=2;" vertex="1" parent="1">
          <mxGeometry x="70" y="260" width="120" height="60" as="geometry" />
        </mxCell>
        <mxCell id="Ba5H4StME68v2Yec3neK-13" value="" style="edgeStyle=orthogonalEdgeStyle;rounded=0;orthogonalLoop=1;jettySize=auto;html=1;" edge="1" parent="1" source="Ba5H4StME68v2Yec3neK-14" target="Ba5H4StME68v2Yec3neK-16">
          <mxGeometry relative="1" as="geometry" />
        </mxCell>
        <mxCell id="Ba5H4StME68v2Yec3neK-14" value="start custName()" style="strokeWidth=2;html=1;shape=mxgraph.flowchart.terminator;whiteSpace=wrap;" vertex="1" parent="1">
          <mxGeometry x="400" y="-10" width="100" height="60" as="geometry" />
        </mxCell>
        <mxCell id="Ba5H4StME68v2Yec3neK-15" value="" style="edgeStyle=orthogonalEdgeStyle;rounded=0;orthogonalLoop=1;jettySize=auto;html=1;" edge="1" parent="1" source="Ba5H4StME68v2Yec3neK-16" target="Ba5H4StME68v2Yec3neK-18">
          <mxGeometry relative="1" as="geometry" />
        </mxCell>
        <mxCell id="Ba5H4StME68v2Yec3neK-16" value="declarations&lt;div&gt;&lt;span style=&quot;white-space: pre;&quot;&gt;&#x9;&lt;/span&gt;string custName&lt;br&gt;&lt;/div&gt;" style="whiteSpace=wrap;html=1;strokeWidth=2;align=left;" vertex="1" parent="1">
          <mxGeometry x="390" y="80" width="120" height="60" as="geometry" />
        </mxCell>
        <mxCell id="Ba5H4StME68v2Yec3neK-17" value="" style="edgeStyle=orthogonalEdgeStyle;rounded=0;orthogonalLoop=1;jettySize=auto;html=1;" edge="1" parent="1" source="Ba5H4StME68v2Yec3neK-18" target="Ba5H4StME68v2Yec3neK-20">
          <mxGeometry relative="1" as="geometry" />
        </mxCell>
        <mxCell id="Ba5H4StME68v2Yec3neK-18" value="input custName" style="shape=parallelogram;perimeter=parallelogramPerimeter;whiteSpace=wrap;html=1;fixedSize=1;align=center;strokeWidth=2;" vertex="1" parent="1">
          <mxGeometry x="390" y="160" width="120" height="40" as="geometry" />
        </mxCell>
        <mxCell id="Ba5H4StME68v2Yec3neK-19" style="edgeStyle=orthogonalEdgeStyle;rounded=0;orthogonalLoop=1;jettySize=auto;html=1;exitX=0;exitY=0.5;exitDx=0;exitDy=0;exitPerimeter=0;strokeColor=light-dark(#FF0000,#FFFFFF);" edge="1" parent="1" source="Ba5H4StME68v2Yec3neK-20">
          <mxGeometry relative="1" as="geometry">
            <mxPoint x="130" y="130" as="targetPoint" />
            <Array as="points">
              <mxPoint x="261" y="250" />
            </Array>
          </mxGeometry>
        </mxCell>
        <mxCell id="Ba5H4StME68v2Yec3neK-20" value="return" style="strokeWidth=2;html=1;shape=mxgraph.flowchart.terminator;whiteSpace=wrap;" vertex="1" parent="1">
          <mxGeometry x="400" y="220" width="100" height="60" as="geometry" />
        </mxCell>
        <mxCell id="Ba5H4StME68v2Yec3neK-21" value="" style="edgeStyle=orthogonalEdgeStyle;rounded=0;orthogonalLoop=1;jettySize=auto;html=1;" edge="1" parent="1" source="Ba5H4StME68v2Yec3neK-22" target="Ba5H4StME68v2Yec3neK-24">
          <mxGeometry relative="1" as="geometry" />
        </mxCell>
        <mxCell id="Ba5H4StME68v2Yec3neK-22" value="start projectedCost()" style="strokeWidth=2;html=1;shape=mxgraph.flowchart.terminator;whiteSpace=wrap;" vertex="1" parent="1">
          <mxGeometry x="640" y="290" width="100" height="60" as="geometry" />
        </mxCell>
        <mxCell id="Ba5H4StME68v2Yec3neK-23" value="" style="edgeStyle=orthogonalEdgeStyle;rounded=0;orthogonalLoop=1;jettySize=auto;html=1;" edge="1" parent="1" source="Ba5H4StME68v2Yec3neK-24" target="Ba5H4StME68v2Yec3neK-26">
          <mxGeometry relative="1" as="geometry" />
        </mxCell>
        <mxCell id="Ba5H4StME68v2Yec3neK-24" value="declarations:&lt;div&gt;&lt;span style=&quot;white-space: pre;&quot;&gt;&#x9;&lt;/span&gt;num hourlyRate = 30&lt;br&gt;&lt;/div&gt;&lt;div&gt;&lt;span style=&quot;white-space: pre;&quot;&gt;&#x9;&lt;/span&gt;num projectedHours&lt;br&gt;&lt;/div&gt;&lt;div&gt;&lt;span style=&quot;white-space: pre;&quot;&gt;&#x9;&lt;/span&gt;num materialCost&lt;br&gt;&lt;/div&gt;&lt;div&gt;&lt;span style=&quot;white-space: pre;&quot;&gt;&#x9;&lt;/span&gt;num materialMultiplier = 1.20&lt;/div&gt;" style="whiteSpace=wrap;html=1;strokeWidth=2;align=left;" vertex="1" parent="1">
          <mxGeometry x="565" y="430" width="250" height="100" as="geometry" />
        </mxCell>
        <mxCell id="Ba5H4StME68v2Yec3neK-25" value="" style="edgeStyle=orthogonalEdgeStyle;rounded=0;orthogonalLoop=1;jettySize=auto;html=1;" edge="1" parent="1" source="Ba5H4StME68v2Yec3neK-26" target="Ba5H4StME68v2Yec3neK-27">
          <mxGeometry relative="1" as="geometry" />
        </mxCell>
        <mxCell id="Ba5H4StME68v2Yec3neK-26" value="input projectedHours" style="shape=parallelogram;perimeter=parallelogramPerimeter;whiteSpace=wrap;html=1;fixedSize=1;align=center;strokeWidth=2;" vertex="1" parent="1">
          <mxGeometry x="615" y="580" width="150" height="70" as="geometry" />
        </mxCell>
        <mxCell id="Ba5H4StME68v2Yec3neK-27" value="input materialCost" style="shape=parallelogram;perimeter=parallelogramPerimeter;whiteSpace=wrap;html=1;fixedSize=1;align=center;strokeWidth=2;" vertex="1" parent="1">
          <mxGeometry x="630" y="670" width="120" height="60" as="geometry" />
        </mxCell>
        <mxCell id="Ba5H4StME68v2Yec3neK-28" value="projectedCost = (hourlyRate * projectedHours) + (materialCost*materialMultiplier)" style="whiteSpace=wrap;html=1;align=left;strokeWidth=2;" vertex="1" parent="1">
          <mxGeometry x="310" y="770" width="470" height="30" as="geometry" />
        </mxCell>
        <mxCell id="Ba5H4StME68v2Yec3neK-29" value="" style="edgeStyle=orthogonalEdgeStyle;rounded=0;orthogonalLoop=1;jettySize=auto;html=1;" edge="1" parent="1" source="Ba5H4StME68v2Yec3neK-30" target="Ba5H4StME68v2Yec3neK-32">
          <mxGeometry relative="1" as="geometry" />
        </mxCell>
        <mxCell id="Ba5H4StME68v2Yec3neK-30" value="output projectedCost" style="shape=parallelogram;perimeter=parallelogramPerimeter;whiteSpace=wrap;html=1;fixedSize=1;align=center;strokeWidth=2;" vertex="1" parent="1">
          <mxGeometry x="560" y="830" width="215" height="70" as="geometry" />
        </mxCell>
        <mxCell id="Ba5H4StME68v2Yec3neK-31" value="" style="edgeStyle=orthogonalEdgeStyle;rounded=0;orthogonalLoop=1;jettySize=auto;html=1;" edge="1" parent="1" source="Ba5H4StME68v2Yec3neK-32" target="Ba5H4StME68v2Yec3neK-37">
          <mxGeometry relative="1" as="geometry" />
        </mxCell>
        <mxCell id="Ba5H4StME68v2Yec3neK-32" value="input projectedHours" style="shape=parallelogram;perimeter=parallelogramPerimeter;whiteSpace=wrap;html=1;fixedSize=1;align=center;strokeWidth=2;" vertex="1" parent="1">
          <mxGeometry x="592.5" y="950" width="150" height="70" as="geometry" />
        </mxCell>
        <mxCell id="Ba5H4StME68v2Yec3neK-33" value="" style="edgeStyle=orthogonalEdgeStyle;rounded=0;orthogonalLoop=1;jettySize=auto;html=1;" edge="1" parent="1" source="Ba5H4StME68v2Yec3neK-37" target="Ba5H4StME68v2Yec3neK-39">
          <mxGeometry relative="1" as="geometry" />
        </mxCell>
        <mxCell id="Ba5H4StME68v2Yec3neK-34" value="yes" style="edgeLabel;html=1;align=center;verticalAlign=middle;resizable=0;points=[];" vertex="1" connectable="0" parent="Ba5H4StME68v2Yec3neK-33">
          <mxGeometry x="-0.2571" y="-1" relative="1" as="geometry">
            <mxPoint as="offset" />
          </mxGeometry>
        </mxCell>
        <mxCell id="Ba5H4StME68v2Yec3neK-35" style="edgeStyle=orthogonalEdgeStyle;rounded=0;orthogonalLoop=1;jettySize=auto;html=1;exitX=1;exitY=0.5;exitDx=0;exitDy=0;" edge="1" parent="1" source="Ba5H4StME68v2Yec3neK-37" target="Ba5H4StME68v2Yec3neK-24">
          <mxGeometry relative="1" as="geometry">
            <mxPoint x="1075" y="440" as="targetPoint" />
            <mxPoint x="1080" y="1100" as="sourcePoint" />
            <Array as="points">
              <mxPoint x="758" y="1125" />
              <mxPoint x="850" y="1125" />
              <mxPoint x="850" y="1025" />
              <mxPoint x="840" y="1025" />
              <mxPoint x="840" y="440" />
            </Array>
          </mxGeometry>
        </mxCell>
        <mxCell id="Ba5H4StME68v2Yec3neK-36" value="No" style="edgeLabel;html=1;align=center;verticalAlign=middle;resizable=0;points=[];" vertex="1" connectable="0" parent="Ba5H4StME68v2Yec3neK-35">
          <mxGeometry x="-0.8364" y="4" relative="1" as="geometry">
            <mxPoint x="1" as="offset" />
          </mxGeometry>
        </mxCell>
        <mxCell id="Ba5H4StME68v2Yec3neK-37" value="projectedHours = 0?" style="rhombus;whiteSpace=wrap;html=1;align=center;strokeWidth=2;" vertex="1" parent="1">
          <mxGeometry x="577.5" y="1050" width="180" height="130" as="geometry" />
        </mxCell>
        <mxCell id="Ba5H4StME68v2Yec3neK-38" style="edgeStyle=orthogonalEdgeStyle;rounded=0;orthogonalLoop=1;jettySize=auto;html=1;exitX=0.5;exitY=1;exitDx=0;exitDy=0;exitPerimeter=0;strokeColor=light-dark(#00CC00,#FFFFFF);" edge="1" parent="1" source="Ba5H4StME68v2Yec3neK-39">
          <mxGeometry relative="1" as="geometry">
            <mxPoint x="130" y="230" as="targetPoint" />
            <mxPoint x="870" y="1490" as="sourcePoint" />
            <Array as="points">
              <mxPoint x="550" y="1290" />
              <mxPoint x="550" y="840" />
              <mxPoint x="230" y="840" />
              <mxPoint x="230" y="230" />
            </Array>
          </mxGeometry>
        </mxCell>
        <mxCell id="Ba5H4StME68v2Yec3neK-39" value="return" style="strokeWidth=2;html=1;shape=mxgraph.flowchart.terminator;whiteSpace=wrap;" vertex="1" parent="1">
          <mxGeometry x="617.5" y="1220" width="100" height="60" as="geometry" />
        </mxCell>
        <mxCell id="Ba5H4StME68v2Yec3neK-40" style="edgeStyle=orthogonalEdgeStyle;rounded=0;orthogonalLoop=1;jettySize=auto;html=1;exitX=0.5;exitY=1;exitDx=0;exitDy=0;entryX=0.791;entryY=-0.033;entryDx=0;entryDy=0;entryPerimeter=0;" edge="1" parent="1" source="Ba5H4StME68v2Yec3neK-27" target="Ba5H4StME68v2Yec3neK-28">
          <mxGeometry relative="1" as="geometry" />
        </mxCell>
        <mxCell id="Ba5H4StME68v2Yec3neK-41" value="endProgam()" style="strokeWidth=2;html=1;shape=mxgraph.flowchart.terminator;whiteSpace=wrap;" vertex="1" parent="1">
          <mxGeometry x="320" y="340" width="100" height="60" as="geometry" />
        </mxCell>
        <mxCell id="Ba5H4StME68v2Yec3neK-42" value="output &quot;Calculations are complete.&quot;" style="shape=parallelogram;html=1;strokeWidth=2;perimeter=parallelogramPerimeter;whiteSpace=wrap;rounded=1;arcSize=12;size=0.23;align=center;fontSize=9;" vertex="1" parent="1">
          <mxGeometry x="270" y="430" width="200" height="80" as="geometry" />
        </mxCell>
        <mxCell id="Ba5H4StME68v2Yec3neK-43" style="edgeStyle=orthogonalEdgeStyle;rounded=0;orthogonalLoop=1;jettySize=auto;html=1;exitX=0;exitY=0.5;exitDx=0;exitDy=0;exitPerimeter=0;" edge="1" parent="1" source="Ba5H4StME68v2Yec3neK-44">
          <mxGeometry relative="1" as="geometry">
            <mxPoint x="130" y="340" as="targetPoint" />
            <Array as="points">
              <mxPoint x="191" y="580" />
            </Array>
          </mxGeometry>
        </mxCell>
        <mxCell id="Ba5H4StME68v2Yec3neK-44" value="return" style="strokeWidth=2;html=1;shape=mxgraph.flowchart.terminator;whiteSpace=wrap;" vertex="1" parent="1">
          <mxGeometry x="320" y="550" width="100" height="60" as="geometry" />
        </mxCell>
        <mxCell id="Ba5H4StME68v2Yec3neK-45" style="edgeStyle=orthogonalEdgeStyle;rounded=0;orthogonalLoop=1;jettySize=auto;html=1;exitX=0.5;exitY=1;exitDx=0;exitDy=0;exitPerimeter=0;entryX=0.455;entryY=0;entryDx=0;entryDy=0;entryPerimeter=0;" edge="1" parent="1" source="Ba5H4StME68v2Yec3neK-41" target="Ba5H4StME68v2Yec3neK-42">
          <mxGeometry relative="1" as="geometry" />
        </mxCell>
        <mxCell id="Ba5H4StME68v2Yec3neK-46" style="edgeStyle=orthogonalEdgeStyle;rounded=0;orthogonalLoop=1;jettySize=auto;html=1;exitX=0.5;exitY=1;exitDx=0;exitDy=0;entryX=0.5;entryY=0;entryDx=0;entryDy=0;entryPerimeter=0;" edge="1" parent="1" source="Ba5H4StME68v2Yec3neK-42" target="Ba5H4StME68v2Yec3neK-44">
          <mxGeometry relative="1" as="geometry" />
        </mxCell>
      </root>
    </mxGraphModel>
  </diagram>
</mxfile>
